<svg xmlns="http://www.w3.org/2000/svg" data-name="S_Star_24_N@1x" height="24" id="S_Star_24_N_1x" viewBox="0 0 24 24" width="24">
  <defs>
    <style>
	.fill {
        fill: #707070;
      }</style>
  </defs>
  <title>S_Star_24_N@1x</title>
  <rect id="ToDelete" fill="#ff13dc" opacity="0" width="24" height="24" /><path class="fill" d="M12.414,1.371l2.752,7.28,7.774.368a.515.515,0,0,1,.3.917L17.165,14.8l2.052,7.507a.515.515,0,0,1-.78.567L11.932,18.6,5.426,22.876a.515.515,0,0,1-.78-.567L6.7,14.8.625,9.935a.515.515,0,0,1,.3-.917L8.7,8.65l2.752-7.28A.515.515,0,0,1,12.414,1.371Z" />
  </svg>